<svg xmlns="http://www.w3.org/2000/svg" width="15" height="16" viewBox="0 0 15 16" fill="none">
                    <path d="M7.5 1.75C5.08125 1.75 3.125 3.70625 3.125 6.125C3.125 7.2125 3.4375 8.23125 4.00625 9.15C4.6 10.1125 5.38125 10.9375 5.98125 11.9C6.275 12.3687 6.4875 12.8062 6.7125 13.3125C6.875 13.6562 7.00625 14.25 7.5 14.25C7.99375 14.25 8.125 13.6562 8.28125 13.3125C8.5125 12.8062 8.71875 12.3687 9.0125 11.9C9.6125 10.9437 10.3938 10.1187 10.9875 9.15C11.5625 8.23125 11.875 7.2125 11.875 6.125C11.875 3.70625 9.91875 1.75 7.5 1.75ZM7.5 7.84375C6.6375 7.84375 5.9375 7.14375 5.9375 6.28125C5.9375 5.41875 6.6375 4.71875 7.5 4.71875C8.3625 4.71875 9.0625 5.41875 9.0625 6.28125C9.0625 7.14375 8.3625 7.84375 7.5 7.84375Z" fill="#7D7D7D" />
</svg>